# xmcd
#
# Track frame offsets:
#	150
#	21870
#	37500
#	62632
#	80712
#	98650
#	120954
#	138962
#	154857
#	173312
#	193330
#	220870
#	240307
#	255992
#
# Disc length: 3620 seconds
#
# Revision: 3
# Processed by: cddbd v1.4PL0 Copyright (c) Steve Scherf et al.
# Submitted via: dBpowerAMP V4.0
#
DISCID=a30e220e
DTITLE=Stockholm water festival compilation - World Water Music
DYEAR=1996
DGENRE=Other
TTITLE0=Angelique Kidjo - Agolo
TTITLE1=Shikisha - La Le La
TTITLE2=Deep Forest - Deep Forest
TTITLE3=Nåid - Blástjarnan
TTITLE4=Adiemus - Kayama
TTITLE5=Enigma - Out From The Deep
TTITLE6=Mory Kante - Yé Ké Yé Ké
TTITLE7=Ritual Green - The Emigrants
TTITLE8=Sacred Spirit - Yeha-Noha
TTITLE9=Lucky People Center - To The Space
TTITLE10=Nils Erikson - Jag är oändlig
TTITLE11=Hedningarna - Vargtimmen
TTITLE12=Zap Mama - Brrrlak!
TTITLE13=Björn J:son Lindh and Staffan Scheja - Lake District
EXTD=
EXTT0=
EXTT1=
EXTT2=
EXTT3=
EXTT4=
EXTT5=
EXTT6=
EXTT7=
EXTT8=
EXTT9=
EXTT10=
EXTT11=
EXTT12=
EXTT13=
PLAYORDER=
